<svg xmlns="http://www.w3.org/2000/svg" xmlns:xlink="http://www.w3.org/1999/xlink" version="1.1" x="0px" y="0px" viewBox="0 0 100 125" style="enable-background:new 0 0 100 100;" xml:space="preserve"><path d="M94.5,47.5l4.1-6.2L49.4,8.8L0.9,41.3l4.1,6.2l9.7-6.5v51.1H85l0-50.8L94.5,47.5z M37.5,48.5  c0,0,7.1-6,12.4,2.2c5.3-8.2,12.4-2.2,12.4-2.2c4.9,4.5,0,10.5,0,10.5c-1.9,3.4-11.6,12.6-12.4,13.4l-0.1-0.1  c-1.2-1.1-10.5-10-12.4-13.3C37.5,59,32.5,53,37.5,48.5z"/><text x="0" y="115" fill="#000000" font-size="5px" font-weight="bold" font-family="'Helvetica Neue', Helvetica, Arial-Unicode, Arial, Sans-serif">Created by Aneeque Ahmed</text><text x="0" y="120" fill="#000000" font-size="5px" font-weight="bold" font-family="'Helvetica Neue', Helvetica, Arial-Unicode, Arial, Sans-serif">from the Noun Project</text></svg>